HIERARCHY
ROOT Hips
{
	OFFSET 0.000000 83.214638 0.000000
	CHANNELS 6 Xposition Yposition Zposition Xrotation Yrotation Zrotation
	JOINT Pelvis
	{
		OFFSET 0.000000 0.000000 0.000000
		CHANNELS 3 Xrotation Yrotation Zrotation
		JOINT LeftUpLeg
		{
			OFFSET 8.479700 -4.795502 -0.379100
			CHANNELS 3 Xrotation Yrotation Zrotation
			JOINT LeftLeg
			{
				OFFSET 0.024144 -32.555107 0.112900
				CHANNELS 3 Xrotation Yrotation Zrotation
				JOINT LeftFoot
				{
					OFFSET -0.024144 -32.638630 -3.012600
					CHANNELS 3 Xrotation Yrotation Zrotation
					JOINT LeftToeBase
					{
						OFFSET 0.970200 -13.225400 11.864200
						CHANNELS 3 Xrotation Yrotation Zrotation
						End Site
						{
							OFFSET 0.000000 12.319262 0.000000
						}
					}
					JOINT LFootTongue
					{
						OFFSET 1.142400 -1.059800 6.665200
						CHANNELS 3 Xrotation Yrotation Zrotation
						End Site
						{
							OFFSET 0.000000 12.319262 0.000000
						}
					}
				}
				JOINT LeftPantLeg
				{
					OFFSET 0.918482 -16.533964 -2.284700
					CHANNELS 3 Xrotation Yrotation Zrotation
					End Site
					{
						OFFSET 0.350399 24.744368 0.000000
					}
				}
			}
		}
		JOINT RightUpLeg
		{
			OFFSET -8.479700 -4.795502 -0.379100
			CHANNELS 3 Xrotation Yrotation Zrotation
			JOINT RightLeg
			{
				OFFSET -0.023144 -32.555092 0.112900
				CHANNELS 3 Xrotation Yrotation Zrotation
				JOINT RightFoot
				{
					OFFSET 0.023144 -32.638641 -3.012700
					CHANNELS 3 Xrotation Yrotation Zrotation
					JOINT RightToeBase
					{
						OFFSET -0.970200 -13.225400 11.864200
						CHANNELS 3 Xrotation Yrotation Zrotation
						End Site
						{
							OFFSET 0.000000 12.319244 0.000000
						}
					}
					JOINT RFootTongue
					{
						OFFSET -1.142200 -1.059800 6.665200
						CHANNELS 3 Xrotation Yrotation Zrotation
						End Site
						{
							OFFSET 0.000000 12.319243 0.000000
						}
					}
				}
				JOINT RightPantLeg
				{
					OFFSET -0.919482 -16.533978 -2.284800
					CHANNELS 3 Xrotation Yrotation Zrotation
					End Site
					{
						OFFSET -0.350400 24.744419 0.000000
					}
				}
			}
		}
	}
	JOINT Spine
	{
		OFFSET 0.000000 7.722000 1.166200
		CHANNELS 3 Xrotation Yrotation Zrotation
		JOINT Spine1
		{
			OFFSET 0.000000 12.024101 0.248800
			CHANNELS 3 Xrotation Yrotation Zrotation
			JOINT Spine2
			{
				OFFSET 0.000000 11.502998 -0.491200
				CHANNELS 3 Xrotation Yrotation Zrotation
				JOINT Neck
				{
					OFFSET 0.000000 18.430702 -3.123100
					CHANNELS 3 Xrotation Yrotation Zrotation
					JOINT Head
					{
						OFFSET 0.000000 9.051102 1.034000
						CHANNELS 3 Xrotation Yrotation Zrotation
						JOINT HairB
						{
							OFFSET 0.208400 24.786102 24.822300
							CHANNELS 3 Xrotation Yrotation Zrotation
							End Site
							{
								OFFSET 0.000000 32.263779 0.000000
							}
						}
						JOINT HairA
						{
							OFFSET -7.081100 24.428299 23.196600
							CHANNELS 3 Xrotation Yrotation Zrotation
							End Site
							{
								OFFSET 0.000000 32.263779 0.000000
							}
						}
						JOINT Hat
						{
							OFFSET 16.728800 15.048294 -15.439601
							CHANNELS 3 Xrotation Yrotation Zrotation
							End Site
							{
								OFFSET 0.000000 32.263779 0.000000
							}
						}
					}
				}
				JOINT LeftShoulder
				{
					OFFSET 6.197800 13.665199 -4.064700
					CHANNELS 3 Xrotation Yrotation Zrotation
					JOINT LeftArm
					{
						OFFSET 7.778100 -0.187103 -1.709300
						CHANNELS 3 Xrotation Yrotation Zrotation
						JOINT LeftForeArm
						{
							OFFSET 22.049376 0.000000 0.000000
							CHANNELS 3 Xrotation Yrotation Zrotation
							JOINT LeftHand
							{
								OFFSET 23.009392 0.000000 0.000000
								CHANNELS 3 Xrotation Yrotation Zrotation
								JOINT LeftHandThumb1
								{
									OFFSET 3.507191 -2.063065 3.133727
									CHANNELS 3 Xrotation Yrotation Zrotation
									JOINT LeftHandThumb2
									{
										OFFSET 3.101337 -1.790558 1.790558
										CHANNELS 3 Xrotation Yrotation Zrotation
										JOINT LeftHandThumb3
										{
											OFFSET 3.058640 -1.765907 1.765906
											CHANNELS 3 Xrotation Yrotation Zrotation
											End Site
											{
												OFFSET -0.415260 3.926476 -0.049563
											}
										}
									}
								}
								JOINT LeftHandIndex1
								{
									OFFSET 11.334419 -0.901459 3.706815
									CHANNELS 3 Xrotation Yrotation Zrotation
									JOINT LeftHandIndex2
									{
										OFFSET 3.283112 0.000000 0.000000
										CHANNELS 3 Xrotation Yrotation Zrotation
										JOINT LeftHandIndex3
										{
											OFFSET 3.323853 0.000000 0.000000
											CHANNELS 3 Xrotation Yrotation Zrotation
											End Site
											{
												OFFSET -1.135597 3.097809 0.402452
											}
										}
									}
								}
								JOINT LeftHandMiddle1
								{
									OFFSET 11.335861 0.000000 0.000000
									CHANNELS 3 Xrotation Yrotation Zrotation
									JOINT LeftHandMiddle2
									{
										OFFSET 3.410492 0.000000 0.000000
										CHANNELS 3 Xrotation Yrotation Zrotation
										JOINT LeftHandMiddle3
										{
											OFFSET 3.312172 0.000000 0.000000
											CHANNELS 3 Xrotation Yrotation Zrotation
											End Site
											{
												OFFSET -1.150200 3.080154 0.400270
											}
										}
									}
								}
								JOINT LeftHandRing1
								{
									OFFSET 11.514786 -0.013176 -3.003090
									CHANNELS 3 Xrotation Yrotation Zrotation
									JOINT LeftHandRing2
									{
										OFFSET 3.053307 0.000000 0.000000
										CHANNELS 3 Xrotation Yrotation Zrotation
										JOINT LeftHandRing3
										{
											OFFSET 3.295807 0.000000 0.000000
											CHANNELS 3 Xrotation Yrotation Zrotation
											End Site
											{
												OFFSET -1.281006 3.013344 0.375733
											}
										}
									}
								}
								JOINT LeftHandPinky1
								{
									OFFSET 10.518692 -0.960396 -5.730441
									CHANNELS 3 Xrotation Yrotation Zrotation
									JOINT LeftHandPinky2
									{
										OFFSET 2.861649 0.000000 0.000000
										CHANNELS 3 Xrotation Yrotation Zrotation
										JOINT LeftHandPinky3
										{
											OFFSET 2.863380 0.000000 0.000000
											CHANNELS 3 Xrotation Yrotation Zrotation
											End Site
											{
												OFFSET -0.843597 2.711159 0.369971
											}
										}
									}
								}
							}
							JOINT LSleeve
							{
								OFFSET 6.676277 -0.344902 -1.011730
								CHANNELS 3 Xrotation Yrotation Zrotation
								End Site
								{
									OFFSET 0.000000 14.885353 0.000000
								}
							}
						}
					}
				}
				JOINT RightShoulder
				{
					OFFSET -6.197800 13.665199 -4.064700
					CHANNELS 3 Xrotation Yrotation Zrotation
					JOINT RightArm
					{
						OFFSET -7.778100 -0.187103 -1.709300
						CHANNELS 3 Xrotation Yrotation Zrotation
						JOINT RightForeArm
						{
							OFFSET -22.049376 0.000000 0.000000
							CHANNELS 3 Xrotation Yrotation Zrotation
							JOINT RightHand
							{
								OFFSET -23.009392 0.000000 0.000000
								CHANNELS 3 Xrotation Yrotation Zrotation
								JOINT RightHandThumb1
								{
									OFFSET -3.507191 -2.063065 3.133727
									CHANNELS 3 Xrotation Yrotation Zrotation
									JOINT RightHandThumb2
									{
										OFFSET -3.101337 -1.790558 1.790558
										CHANNELS 3 Xrotation Yrotation Zrotation
										JOINT RightHandThumb3
										{
											OFFSET -3.058640 -1.765907 1.765906
											CHANNELS 3 Xrotation Yrotation Zrotation
											End Site
											{
												OFFSET 0.415260 3.926476 -0.049563
											}
										}
									}
								}
								JOINT RightHandIndex1
								{
									OFFSET -11.334419 -0.901459 3.706815
									CHANNELS 3 Xrotation Yrotation Zrotation
									JOINT RightHandIndex2
									{
										OFFSET -3.283112 0.000000 0.000000
										CHANNELS 3 Xrotation Yrotation Zrotation
										JOINT RightHandIndex3
										{
											OFFSET -3.323853 0.000000 0.000000
											CHANNELS 3 Xrotation Yrotation Zrotation
											End Site
											{
												OFFSET 1.135597 3.097809 0.402452
											}
										}
									}
								}
								JOINT RightHandMiddle1
								{
									OFFSET -11.335861 0.000000 0.000000
									CHANNELS 3 Xrotation Yrotation Zrotation
									JOINT RightHandMiddle2
									{
										OFFSET -3.410492 0.000000 0.000000
										CHANNELS 3 Xrotation Yrotation Zrotation
										JOINT RightHandMiddle3
										{
											OFFSET -3.312172 0.000000 0.000000
											CHANNELS 3 Xrotation Yrotation Zrotation
											End Site
											{
												OFFSET 1.150200 3.080154 0.400270
											}
										}
									}
								}
								JOINT RightHandRing1
								{
									OFFSET -11.514786 -0.013176 -3.003090
									CHANNELS 3 Xrotation Yrotation Zrotation
									JOINT RightHandRing2
									{
										OFFSET -3.053307 0.000000 0.000000
										CHANNELS 3 Xrotation Yrotation Zrotation
										JOINT RightHandRing3
										{
											OFFSET -3.295807 0.000000 0.000000
											CHANNELS 3 Xrotation Yrotation Zrotation
											End Site
											{
												OFFSET 1.281006 3.013344 0.375733
											}
										}
									}
								}
								JOINT RightHandPinky1
								{
									OFFSET -10.518692 -0.960396 -5.730441
									CHANNELS 3 Xrotation Yrotation Zrotation
									JOINT RightHandPinky2
									{
										OFFSET -2.861649 0.000000 0.000000
										CHANNELS 3 Xrotation Yrotation Zrotation
										JOINT RightHandPinky3
										{
											OFFSET -2.863380 0.000000 0.000000
											CHANNELS 3 Xrotation Yrotation Zrotation
											End Site
											{
												OFFSET 0.843597 2.711159 0.369971
											}
										}
									}
								}
							}
							JOINT RSleeve
							{
								OFFSET -6.676277 -0.344902 -1.011730
								CHANNELS 3 Xrotation Yrotation Zrotation
								End Site
								{
									OFFSET 0.000000 14.885353 0.000000
								}
							}
						}
					}
				}
				JOINT Backpack
				{
					OFFSET 0.000000 -2.471497 36.677502
					CHANNELS 3 Xrotation Yrotation Zrotation
					End Site
					{
						OFFSET 0.000000 20.427315 0.000000
					}
				}
				JOINT Hood
				{
					OFFSET 0.000000 18.754097 -10.431000
					CHANNELS 3 Xrotation Yrotation Zrotation
					JOINT Hood1
					{
						OFFSET 0.000000 -5.011002 -7.685901
						CHANNELS 3 Xrotation Yrotation Zrotation
						End Site
						{
							OFFSET 0.000000 9.175140 0.000000
						}
					}
				}
				JOINT LHoodieString
				{
					OFFSET 5.250500 16.397697 3.089900
					CHANNELS 3 Xrotation Yrotation Zrotation
					JOINT LHoodieString1
					{
						OFFSET 0.257700 -6.364304 3.694600
						CHANNELS 3 Xrotation Yrotation Zrotation
						JOINT LHoodieString2
						{
							OFFSET 0.000000 -9.643799 2.679100
							CHANNELS 3 Xrotation Yrotation Zrotation
							End Site
							{
								OFFSET 0.000000 10.009018 0.000000
							}
						}
					}
				}
				JOINT RHoodieString
				{
					OFFSET -5.250500 16.397697 3.089900
					CHANNELS 3 Xrotation Yrotation Zrotation
					JOINT RHoodieString1
					{
						OFFSET -0.257700 -6.364304 3.694600
						CHANNELS 3 Xrotation Yrotation Zrotation
						JOINT RHoodieString2
						{
							OFFSET 0.000000 -9.643799 2.679100
							CHANNELS 3 Xrotation Yrotation Zrotation
							End Site
							{
								OFFSET 0.000000 10.009018 0.000000
							}
						}
					}
				}
			}
			JOINT LBackpack_Strap
			{
				OFFSET 15.223200 -7.719803 -6.610900
				CHANNELS 3 Xrotation Yrotation Zrotation
				End Site
				{
					OFFSET 0.000000 16.040596 0.000000
				}
			}
			JOINT RBackpack_Strap
			{
				OFFSET -15.223000 -7.719803 -6.610900
				CHANNELS 3 Xrotation Yrotation Zrotation
				End Site
				{
					OFFSET 0.000000 16.040596 0.000000
				}
			}
		}
	}
	JOINT BoyFacialAnim_Joint
	{
		OFFSET 1.000000 -82.208099 -1.550900
		CHANNELS 3 Xrotation Yrotation Zrotation
		End Site
		{
			OFFSET 0.000000 30.012791 0.000000
		}
	}
}
MOTION
Frames: 4
Frame Time: 0.033333
0.401371 79.791595 -0.487338 -16.902410 -38.977393 -9.266023 -0.000000 -0.000001 0.000000 -20.967999 43.377336 27.968248 22.769383 0.475476 -0.690252 2.528339 1.284866 -3.079762 -0.000000 -0.000000 -0.000000 -0.000000 -0.000000 -0.000000 0.000000 -0.000001 -0.000000 4.178963 5.179855 -5.769863 30.863190 -0.336302 1.074235 -20.486439 -17.432255 4.315772 0.000000 0.000002 0.000000 0.000000 0.000002 0.000000 0.000002 0.000001 0.000000 7.991460 -0.041838 -0.261328 16.413459 -0.125515 -0.745992 16.413513 -0.192903 -0.721093 0.367408 7.480964 0.837547 -6.982128 21.597273 11.882993 -0.000001 -0.000001 0.000000 -0.000001 -0.000001 0.000000 -0.000001 -0.000001 0.000000 -37.571067 -4.822515 1.545821 -41.628418 -7.015799 -61.684381 -0.000041 -64.995889 -0.000063 -119.359646 1.120061 32.550199 4.709219 9.560359 3.111992 19.473189 -1.474916 7.636929 -0.000001 -0.000003 0.000003 -0.212816 3.933729 -36.747131 2.942141 5.078906 -60.144597 -0.000004 0.000000 -0.000002 0.405912 5.507059 -52.453165 3.387147 5.308616 -65.057477 0.000005 0.000001 0.000000 -0.074377 5.736792 -61.061420 4.055026 5.569512 -72.094907 0.000002 -0.000000 -0.000004 -6.565559 4.545150 -72.425202 3.299628 5.267209 -64.107841 0.000000 -0.000002 0.000001 -0.000002 0.000004 0.000000 -41.176294 -8.605647 -9.942316 -46.819700 58.242963 100.948707 0.000185 98.442956 -0.000233 -52.463113 -17.216597 -29.273129 8.377128 -4.904135 11.022011 21.620221 -18.183903 -18.379225 0.000001 -0.000001 -0.000001 -0.920039 1.683591 12.434975 0.748117 -2.533496 32.898293 -0.000000 -0.000000 -0.000000 3.413056 -7.186265 51.650259 6.296823 -4.359590 110.634680 0.000001 0.000001 -0.000000 -3.349044 -2.600445 57.010568 5.440869 -4.590882 99.698133 0.000000 -0.000001 -0.000003 -3.996449 -3.303946 64.593864 4.058862 -4.618663 82.610523 -0.000000 -0.000001 0.000003 -0.000000 -0.000001 -0.000001 0.000001 -0.000001 -0.000001 0.000001 -0.000001 -0.000001 0.000001 -0.000001 -0.000001 0.000001 -0.000001 -0.000001 0.000001 -0.000001 -0.000001 -0.000001 -0.000000 0.000000 0.000001 -0.000001 -0.000001 0.000001 -0.000001 -0.000001 -0.000001 -0.000000 0.000000 -0.000000 0.000001 -0.000000 -0.000000 0.000001 -0.000000 -0.000000 -0.000001 0.000000 
0.428620 79.759712 -0.548982 -16.879535 -38.978107 -9.192287 -0.000000 -0.000000 -0.000000 -21.073546 43.361958 27.952749 22.875584 0.473743 -0.690612 2.527669 1.285522 -3.040357 -0.000000 -0.000000 -0.000000 -0.000000 -0.000000 -0.000000 -0.000000 -0.000000 0.000000 3.866025 5.161793 -5.814537 31.273432 -0.313387 1.114817 -20.427641 -17.403455 4.144704 -0.000000 -0.000002 0.000000 -0.000000 -0.000002 0.000000 -0.000001 0.000002 -0.000001 8.057446 -0.020810 -0.213764 16.479249 -0.095640 -0.710269 16.476459 -0.158983 -0.684562 0.374045 7.495509 0.765524 -7.064343 21.551492 11.923093 -0.000000 0.000000 -0.000001 -0.000000 0.000000 -0.000001 -0.000000 0.000000 -0.000001 -37.572543 -4.793421 1.410442 -41.931177 -7.163470 -61.728203 0.000019 -64.808708 0.000028 -119.419205 1.176259 32.388743 4.709219 9.560353 3.111993 19.473194 -1.474916 7.636930 0.000000 0.000003 -0.000000 -0.212816 3.933730 -36.747135 2.942143 5.078903 -60.144597 0.000005 0.000001 -0.000002 0.405912 5.507054 -52.453165 3.387148 5.308611 -65.057463 0.000003 0.000000 -0.000003 -0.074377 5.736784 -61.061420 4.055030 5.569516 -72.094901 -0.000003 -0.000001 -0.000004 -6.565562 4.545147 -72.425202 3.299632 5.267214 -64.107841 0.000003 -0.000000 0.000001 -0.000001 0.000002 0.000001 -41.171554 -8.538653 -9.922611 -46.761985 58.135053 100.754654 -0.000032 98.504763 0.000003 -52.256603 -17.358557 -29.307327 8.377128 -4.904135 11.022012 21.620223 -18.183903 -18.379225 0.000001 0.000001 0.000001 -0.920038 1.683590 12.434978 0.748116 -2.533495 32.898296 -0.000000 -0.000001 0.000007 3.413056 -7.186265 51.650256 6.296824 -4.359588 110.634687 0.000000 0.000001 -0.000002 -3.349044 -2.600445 57.010571 5.440871 -4.590879 99.698133 -0.000001 0.000000 0.000004 -3.996450 -3.303944 64.593864 4.058862 -4.618667 82.610523 -0.000000 -0.000001 0.000004 -0.000001 0.000001 -0.000000 0.000001 0.000002 -0.000002 0.000001 0.000002 -0.000002 0.000001 0.000002 -0.000002 0.000001 0.000002 -0.000002 0.000001 0.000002 -0.000001 -0.000001 0.000000 -0.000001 0.000001 0.000002 -0.000002 0.000001 0.000002 -0.000001 -0.000001 0.000000 -0.000001 -0.000000 -0.000000 0.000000 -0.000000 -0.000000 0.000000 -0.000000 -0.000000 -0.000000 
0.571229 79.647781 -0.749808 -16.798092 -38.928684 -8.900611 -0.000000 -0.000001 -0.000000 -21.422316 43.335576 27.820511 23.267296 0.421902 -0.691098 2.495494 1.289378 -2.847192 -0.000000 -0.000000 -0.000000 -0.000000 -0.000000 0.000000 -0.000000 -0.000001 0.000000 2.927596 4.945442 -6.114584 32.488556 -0.176842 1.250435 -20.399912 -17.243813 3.794772 0.000000 -0.000000 0.000000 0.000000 -0.000000 0.000000 0.000002 0.000003 -0.000001 8.236713 0.002528 -0.159986 16.665885 -0.062974 -0.687608 16.661012 -0.119343 -0.656801 0.346444 7.501678 0.628854 -7.077579 21.410394 11.787506 0.000000 0.000001 -0.000000 0.000000 0.000001 -0.000000 0.000000 0.000001 -0.000000 -37.572932 -4.713845 1.311702 -42.610043 -7.170638 -61.859965 0.000038 -64.765875 0.000044 -119.303324 1.205752 32.308198 4.709219 9.560348 3.111993 19.473189 -1.474917 7.636930 0.000002 -0.000003 0.000002 -0.212815 3.933730 -36.747131 2.942144 5.078904 -60.144597 -0.000002 -0.000001 -0.000000 0.405911 5.507056 -52.453165 3.387149 5.308618 -65.057470 -0.000000 -0.000001 0.000002 -0.074378 5.736787 -61.061420 4.055030 5.569513 -72.094907 -0.000002 -0.000002 0.000001 -6.565562 4.545150 -72.425209 3.299626 5.267214 -64.107841 -0.000004 0.000000 -0.000005 -0.000001 0.000001 0.000001 -41.136194 -8.478644 -9.788195 -46.862809 57.930536 100.428171 0.000599 98.611696 -0.000600 -51.928518 -17.583127 -29.153757 8.377127 -4.904134 11.022010 21.620223 -18.183902 -18.379226 0.000004 0.000001 0.000000 -0.920040 1.683591 12.434976 0.748118 -2.533495 32.898296 -0.000001 -0.000001 0.000007 3.413055 -7.186265 51.650256 6.296824 -4.359589 110.634687 0.000001 0.000001 -0.000000 -3.349043 -2.600443 57.010571 5.440871 -4.590879 99.698140 -0.000000 0.000001 0.000009 -3.996450 -3.303945 64.593871 4.058859 -4.618665 82.610523 -0.000001 -0.000002 -0.000005 0.000001 0.000001 -0.000001 0.000003 0.000000 -0.000001 0.000003 0.000000 -0.000001 0.000003 0.000000 -0.000001 0.000003 0.000000 -0.000001 0.000003 0.000000 -0.000001 -0.000000 -0.000001 0.000000 0.000003 0.000000 -0.000001 0.000003 0.000000 -0.000001 -0.000000 -0.000001 0.000000 -0.000000 -0.000001 0.000000 -0.000000 -0.000001 0.000000 -0.000000 -0.000001 -0.000000 
0.808091 79.497574 -0.998379 -16.883437 -38.619891 -8.480812 -0.000000 0.000001 -0.000000 -21.585718 43.427893 27.407025 23.697695 0.110913 -0.689352 2.477217 1.294997 -2.486484 0.000000 0.000001 -0.000000 0.000000 0.000001 0.000000 -0.000000 0.000000 -0.000000 2.045906 4.371935 -6.795612 33.899451 0.097423 1.459447 -20.555589 -17.014334 3.521054 0.000000 -0.000003 0.000000 0.000000 -0.000003 0.000000 0.000000 -0.000004 0.000002 8.573571 -0.043217 -0.165952 17.019185 -0.104619 -0.709529 17.014493 -0.149733 -0.671531 0.233793 7.463286 0.521003 -7.088152 21.144596 11.457244 0.000001 -0.000000 0.000002 0.000001 -0.000000 0.000002 0.000001 -0.000000 0.000002 -37.571699 -4.642243 1.328977 -43.780529 -7.422595 -62.141956 -0.000024 -64.281267 -0.000018 -119.282164 1.346607 32.044140 4.709218 9.560357 3.111991 19.473192 -1.474914 7.636928 0.000000 0.000002 -0.000001 -0.212817 3.933733 -36.747131 2.942143 5.078904 -60.144597 0.000001 0.000000 -0.000002 0.405912 5.507060 -52.453165 3.387148 5.308619 -65.057470 0.000004 0.000002 -0.000001 -0.074378 5.736793 -61.061427 4.055026 5.569513 -72.094907 -0.000002 -0.000001 -0.000001 -6.565562 4.545150 -72.425202 3.299626 5.267217 -64.107841 -0.000002 -0.000002 -0.000002 -0.000000 0.000002 -0.000001 -41.098713 -8.524651 -9.648627 -47.301727 57.654037 100.133913 0.000189 98.690469 -0.000189 -51.614718 -17.793997 -29.134968 8.377128 -4.904134 11.022010 21.620223 -18.183902 -18.379225 0.000002 -0.000000 -0.000000 -0.920040 1.683591 12.434974 0.748118 -2.533494 32.898296 -0.000001 -0.000002 0.000001 3.413055 -7.186266 51.650259 6.296825 -4.359588 110.634687 0.000001 0.000001 -0.000002 -3.349044 -2.600443 57.010571 5.440869 -4.590880 99.698127 -0.000001 0.000000 0.000000 -3.996449 -3.303944 64.593871 4.058860 -4.618668 82.610523 -0.000001 -0.000001 -0.000005 0.000001 0.000000 0.000000 0.000001 -0.000003 0.000001 0.000001 -0.000003 0.000001 0.000001 -0.000003 0.000001 0.000001 -0.000003 0.000001 0.000001 -0.000003 0.000002 0.000002 -0.000001 0.000001 0.000001 -0.000003 0.000001 0.000001 -0.000003 0.000002 0.000002 -0.000001 0.000001 -0.000000 -0.000000 -0.000000 -0.000000 -0.000000 -0.000000 -0.000000 0.000001 -0.000000 
